grf
version=1
nRows=14
nColumns=37
inDegrees=no
endheader
time	ground_force_1_vx	ground_force_1_vy	ground_force_1_vz	ground_force_1_px	ground_force_1_py	ground_force_1_pz	ground_moment_1_mx	ground_moment_1_my	ground_moment_1_mz	ground_force_2_vx	ground_force_2_vy	ground_force_2_vz	ground_force_2_px	ground_force_2_py	ground_force_2_pz	ground_moment_2_mx	ground_moment_2_my	ground_moment_2_mz	ground_force_3_vx	ground_force_3_vy	ground_force_3_vz	ground_force_3_px	ground_force_3_py	ground_force_3_pz	ground_moment_3_mx	ground_moment_3_my	ground_moment_3_mz	ground_force_4_vx	ground_force_4_vy	ground_force_4_vz	ground_force_4_px	ground_force_4_py	ground_force_4_pz	ground_moment_4_mx	ground_moment_4_my	ground_moment_4_mz
      0.00000000	      0.00000000	     -0.00000000	      0.00000000	      0.00000000	      0.00000000	      0.00000000	      0.00000000	      0.00000000	      0.00000000	      0.00000000	     -0.00000000	      0.00000000	      0.00000000	      0.00000000	      0.00000000	      0.00000000	      0.00000000	      0.00000000	     -4.01452334	   -134.49012721	   -836.83325195	   -307.83333029	   -654.87015218	      0.00000000	      0.00000000	     -0.00000000	  -3843.28102392	      0.00000000	     -0.00000000	      0.00000000	      0.00000000	      0.00000000	      0.00000000	      0.00000000	      0.00000000	      0.00000000
      0.01000000	      0.00000000	     -0.00000000	      0.00000000	      0.00000000	      0.00000000	      0.00000000	      0.00000000	      0.00000000	      0.00000000	      0.00000000	     -0.00000000	      0.00000000	      0.00000000	      0.00000000	      0.00000000	      0.00000000	      0.00000000	      0.00000000	     -3.65863603	   -132.88043181	   -830.98083496	   -308.40694129	   -655.14499820	      0.00000000	      0.00000000	     -0.00000000	  -3710.61617951	      0.00000000	     -0.00000000	      0.00000000	      0.00000000	      0.00000000	      0.00000000	      0.00000000	      0.00000000	      0.00000000
      0.02000000	      0.00000000	     -0.00000000	      0.00000000	      0.00000000	      0.00000000	      0.00000000	      0.00000000	      0.00000000	      0.00000000	      0.00000000	     -0.00000000	      0.00000000	      0.00000000	      0.00000000	      0.00000000	      0.00000000	      0.00000000	      0.00000000	     -2.32831060	   -132.19535807	   -825.30859375	   -308.81822991	   -655.52541349	      0.00000000	      0.00000000	      0.00000000	  -3629.35123053	      0.00000000	     -0.00000000	      0.00000000	      0.00000000	      0.00000000	      0.00000000	      0.00000000	      0.00000000	      0.00000000
      0.03000000	      0.00000000	     -0.00000000	      0.00000000	      0.00000000	      0.00000000	      0.00000000	      0.00000000	      0.00000000	      0.00000000	      0.00000000	     -0.00000000	      0.00000000	      0.00000000	      0.00000000	      0.00000000	      0.00000000	      0.00000000	      0.00000000	     -1.77429208	   -131.90847763	   -822.77593994	   -309.30405597	   -654.75303926	      0.00000000	     -0.00000000	     -0.00000000	  -3620.42893104	      0.00000000	     -0.00000000	      0.00000000	      0.00000000	      0.00000000	      0.00000000	      0.00000000	      0.00000000	      0.00000000
      0.04000000	      0.00000000	     -0.00000000	      0.00000000	      0.00000000	      0.00000000	      0.00000000	      0.00000000	      0.00000000	      0.00000000	      5.88789368	     14.59471512	    -37.17372513	   -313.27370537	  -1138.21482577	      0.00000000	      0.00000000	      0.00000000	    974.37875601	     -2.17272453	   -131.44416790	   -819.11334229	   -310.13702101	   -654.78782131	      0.00000000	      0.00000000	     -0.00000000	  -3466.32361543	      0.00000000	     -0.00000000	      0.00000000	      0.00000000	      0.00000000	      0.00000000	      0.00000000	      0.00000000	      0.00000000
      0.05000000	      0.00000000	     -0.00000000	      0.00000000	      0.00000000	      0.00000000	      0.00000000	      0.00000000	      0.00000000	      0.00000000	      1.65088725	     18.82855034	    -56.77074814	   -310.46329624	  -1141.26689856	      0.00000000	      0.00000000	      0.00000000	    901.48496344	     -1.95164873	   -131.15956099	   -814.22521973	   -310.88031913	   -655.28481961	      0.00000000	      0.00000000	     -0.00000000	  -3456.56563396	      0.00000000	     -0.00000000	      0.00000000	      0.00000000	      0.00000000	      0.00000000	      0.00000000	      0.00000000	      0.00000000
      0.06000000	      0.00000000	     -0.00000000	      0.00000000	      0.00000000	      0.00000000	      0.00000000	      0.00000000	      0.00000000	      0.00000000	      2.54321790	     17.20073128	    -78.40594482	   -303.27028467	  -1139.03454764	      0.00000000	      0.00000000	      0.00000000	    287.00323222	     -2.37475046	   -129.10594156	   -805.57873535	   -311.95060848	   -655.37311953	      0.00000000	      0.00000000	     -0.00000000	  -3233.23958215	      0.00000000	     -0.00000000	      0.00000000	      0.00000000	      0.00000000	      0.00000000	      0.00000000	      0.00000000	      0.00000000
      0.07000000	      0.00000000	     -0.00000000	      0.00000000	      0.00000000	      0.00000000	      0.00000000	      0.00000000	      0.00000000	      0.00000000	      5.72760630	     16.02535439	    -99.48827362	   -303.94317019	  -1125.79145472	      0.00000000	      0.00000000	      0.00000000	    481.47640341	     -1.64385213	   -126.98495469	   -793.28662109	   -312.38218124	   -655.10879336	      0.00000000	      0.00000000	     -0.00000000	  -3092.64386674	      0.00000000	     -0.00000000	      0.00000000	      0.00000000	      0.00000000	      0.00000000	      0.00000000	      0.00000000	      0.00000000
      0.08000000	      0.00000000	     -0.00000000	      0.00000000	      0.00000000	      0.00000000	      0.00000000	      0.00000000	      0.00000000	      0.00000000	      5.91198683	     17.24554062	   -117.95264435	   -306.49031541	  -1129.37803782	      0.00000000	      0.00000000	      0.00000000	    864.06893761	     -1.12932911	   -124.40225210	   -775.99401855	   -313.13175752	   -655.16391113	      0.00000000	      0.00000000	     -0.00000000	  -3013.73964783	      0.00000000	     -0.00000000	      0.00000000	      0.00000000	      0.00000000	      0.00000000	      0.00000000	      0.00000000	      0.00000000
      0.09000000	      0.00000000	     -0.00000000	      0.00000000	      0.00000000	      0.00000000	      0.00000000	      0.00000000	      0.00000000	      0.00000000	      5.74979496	     20.47842216	   -138.90779114	   -301.96526156	  -1132.88698123	      0.00000000	      0.00000000	      0.00000000	    709.61499632	     -0.97862030	   -121.42093650	   -757.15179443	   -313.91706276	   -655.63280735	      0.00000000	      0.00000000	     -0.00000000	  -2847.82231658	      0.00000000	     -0.00000000	      0.00000000	      0.00000000	      0.00000000	      0.00000000	      0.00000000	      0.00000000	      0.00000000
      0.10000000	      0.00000000	     -0.00000000	      0.00000000	      0.00000000	      0.00000000	      0.00000000	      0.00000000	      0.00000000	      0.00000000	      3.61134768	     22.10433960	   -156.55696106	   -300.27365119	  -1131.99307523	      0.00000000	      0.00000000	      0.00000000	    835.11435821	     -0.20207619	   -117.89146422	   -736.01159668	   -314.91436693	   -655.64330657	      0.00000000	      0.00000000	     -0.00000000	  -2621.34838099	      0.00000000	     -0.00000000	      0.00000000	      0.00000000	      0.00000000	      0.00000000	      0.00000000	      0.00000000	      0.00000000
      0.11000000	      0.00000000	     -0.00000000	      0.00000000	      0.00000000	      0.00000000	      0.00000000	      0.00000000	      0.00000000	      0.00000000	      1.09561980	     24.46071815	   -175.27659607	   -301.60249734	  -1132.62657846	      0.00000000	      0.00000000	      0.00000000	    795.16237970	      1.14592536	   -113.69118510	   -714.89514160	   -316.11731969	   -656.01563579	      0.00000000	      0.00000000	     -0.00000000	  -2482.17081581	      0.00000000	     -0.00000000	      0.00000000	      0.00000000	      0.00000000	      0.00000000	      0.00000000	      0.00000000	      0.00000000
      0.12000000	      0.00000000	     -0.00000000	      0.00000000	      0.00000000	      0.00000000	      0.00000000	      0.00000000	      0.00000000	      0.00000000	     -0.08921051	     28.32224846	   -189.62393188	   -305.36440938	  -1127.21221589	      0.00000000	      0.00000000	      0.00000000	   1009.97780044	      3.01615716	   -108.98896816	   -694.29620361	   -317.28836879	   -655.74191006	      0.00000000	     -0.00000000	     -0.00000000	  -2182.82632236	      0.00000000	     -0.00000000	      0.00000000	      0.00000000	      0.00000000	      0.00000000	      0.00000000	      0.00000000	      0.00000000
      0.13000000	      0.00000000	     -0.00000000	      0.00000000	      0.00000000	      0.00000000	      0.00000000	      0.00000000	      0.00000000	      0.00000000	      0.30043200	     31.10179329	   -210.24436951	   -307.73178184	  -1130.51085363	      0.00000000	      0.00000000	      0.00000000	   1042.18619892	      4.14373433	   -105.04003942	   -672.30059814	   -318.24307826	   -656.07050988	      0.00000000	      0.00000000	     -0.00000000	  -1792.33839455	      0.00000000	     -0.00000000	      0.00000000	      0.00000000	      0.00000000	      0.00000000	      0.00000000	      0.00000000	      0.00000000
